<?xml version="1.0" encoding="iso-8859-1"?>
<!-- Generator: Adobe Illustrator 19.0.0, SVG Export Plug-In . SVG Version: 6.00 Build 0)  -->
<svg version="1.1" id="Layer_1" xmlns="http://www.w3.org/2000/svg" xmlns:xlink="http://www.w3.org/1999/xlink" x="0px" y="0px"
	 viewBox="0 0 485 485" style="enable-background:new 0 0 485 485;" xml:space="preserve">
<path d="M306.901,242.5c0-75.567,40.718-146.074,106.264-184.006l22.434-12.983l-22.434-12.983C376.393,11.248,334.46,0,291.901,0
	C227.127,0,166.23,25.225,120.428,71.026C74.626,116.829,49.401,177.726,49.401,242.5s25.225,125.671,71.026,171.474
	C166.23,459.775,227.127,485,291.901,485c42.559,0,84.491-11.248,121.264-32.528l22.434-12.983l-22.434-12.983
	C347.619,388.574,306.901,318.067,306.901,242.5z M291.901,455c-117.173,0-212.5-95.327-212.5-212.5S174.729,30,291.901,30
	c28.877,0,57.423,5.909,83.793,17.232c-26.346,19.419-48.65,44.055-65.331,72.333c-21.891,37.114-33.462,79.624-33.462,122.935
	s11.571,85.821,33.462,122.935c16.681,28.278,38.985,52.914,65.331,72.333C349.324,449.091,320.778,455,291.901,455z"/>
<g>
</g>
<g>
</g>
<g>
</g>
<g>
</g>
<g>
</g>
<g>
</g>
<g>
</g>
<g>
</g>
<g>
</g>
<g>
</g>
<g>
</g>
<g>
</g>
<g>
</g>
<g>
</g>
<g>
</g>
</svg>
