<?xml version="1.0" encoding="iso-8859-1"?>
<!-- Generator: Adobe Illustrator 16.0.0, SVG Export Plug-In . SVG Version: 6.00 Build 0)  -->
<!DOCTYPE svg PUBLIC "-//W3C//DTD SVG 1.1//EN" "http://www.w3.org/Graphics/SVG/1.1/DTD/svg11.dtd">
<svg version="1.1" id="Capa_1" xmlns="http://www.w3.org/2000/svg" xmlns:xlink="http://www.w3.org/1999/xlink" x="0px" y="0px"
	 width="70.101px" height="70.102px" viewBox="0 0 70.101 70.102" style="enable-background:new 0 0 70.101 70.102;"
	 xml:space="preserve">
<g>
	<path d="M62.978,13.084c0.257-0.652-0.523-2.225-1.177-2.618c-0.654-0.392-1.704-1.569-1.968-2.091
		c-0.261-0.522-1.438-2.093-2.095-2.227c-0.65-0.13-2.348-1.44-2.484-2.354c-0.13-0.914-1.964-0.914-3.401-1.829
		c-1.428-0.915-1.828-1.311-3.135-1.829c-1.308-0.521-2.875,0.655-3.662,0.264c-0.776-0.397-3.528,1.306-3.922,1.703
		c-0.39,0.388-0.52,0.652-1.704,1.432c-1.179,0.785-1.563,1.177-2.744,1.44c-1.174,0.264-1.042,1.438-2.223,2.352
		c-1.171,0.918-1.83,2.618-2.348,3.533c-0.525,0.914-0.525,1.311-1.047,3.006c-0.375,1.227-0.012,1.571,0.371,2.151
		c-0.916,0.296-2.989,1.647-2.989,1.647s-0.916-0.137-2.351-0.137c-1.444,0-4.319,2.488-4.319,2.488s-1.703,0.133-1.96,0.652
		c-0.264,0.522,0.78,1.829,1.702,2.223c0.914,0.392,0.392,4.839,0.392,5.886c0,1.047-0.134,0.919-0.789,2.096
		c-0.65,1.174-0.914,3.528-0.78,4.577c0.133,1.044-5.232,7.584-6.54,9.675c-1.311,2.094-2.618,6.276-2.354,8.761
		s3.662,7.193,3.795,8.37c0.134,1.178-1.959,2.882-1.959,2.882l-0.876,1.824H6.783v3.141h50.696v-3.141h-5.592
		c-0.377-5.559-1.677-25.386-1.349-26.286c0.396-1.047,3.669-2.871,3.669-2.871s0.26-1.311-0.138-1.968
		c-0.39-0.65-1.827-1.694-1.827-1.694s-2.095,0.914-2.484,0.125c-0.39-0.78,0-9.674,0.13-10.199c0.13-0.524,1.178-0.652,2.225-0.652
		s0.921,0,2.098-0.26c1.178-0.266,1.434-0.396,2.741-0.917s1.697-0.652,2.614-0.912c0.921-0.267,0.521-1.569,1.048-2.485
		c0.526-0.914,1.827-2.224,2.484-3.14C63.755,14.783,62.708,13.735,62.978,13.084z M14.202,57.573
		c0.357,0.798-0.719-1.009-1.23-1.943c-0.504-0.938-0.575-2.519-0.357-4.531c0.214-2.019,2.228-6.485,2.228-6.485
		s-1.215,4.966-1.576,6.485C12.905,52.607,13.841,56.783,14.202,57.573z M32.367,11.626c0.565-0.284,0.905-0.396,0.962-0.847
		c0.055-0.448-0.057-0.448,0.395-1.069c0.449-0.618,0.449-1.297,0.9-1.354c0.45-0.055-0.284,1.41-0.335,2.029
		c-0.061,0.625-0.341,1.129-0.736,1.297c-0.394,0.167-1.013,1.18-1.186,1.348c-0.164,0.173-0.84,1.129-0.84,1.129
		C31.58,13.936,31.804,11.906,32.367,11.626z M22.871,29.839c-0.111,0.448-0.378,0.823-0.784,1.422
		c-0.417,0.599-1.206,3.266-1.206,3.266s0.15-1.836,0.264-2.438c0.111-0.604,0.862-1.732,1.086-2.18
		c0.224-0.452,0.192-2.103,0.15-2.895c-0.032-0.729,0.058-3.056,0.074-3.371c0-0.021,0-0.036,0-0.036s0,0.012,0,0.036
		C22.461,24.147,22.98,29.404,22.871,29.839z M43.222,38.45c-0.336,6.694-2.002,23.671-2.478,28.511H28.498
		c0.079-0.076,0.152-0.168,0.214-0.261c0.524-0.79-3.662-0.521-3.795-0.913c-0.128-0.395,0.133-1.444,1.049-2.741
		c0.914-1.308,1.569-3.012,1.962-4.716c0.389-1.697-1.704-5.103-1.704-5.103s1.833-1.438,2.881-2.481
		c1.047-1.047,2.351-3.398,3.398-5.89c1.045-2.484,3.266-5.879,4.182-6.139c0.917-0.268,3.661-1.571,4.969-2.352
		c0.801-0.485,1.485-2.193,1.854-2.81C43.461,34.775,43.291,37.164,43.222,38.45z M43.605,24.764
		c-0.082,0.022-0.164,0.049-0.253,0.087c-1.047,0.524-1.171,2.615-1.824,3.27s-0.783,1.045-1.961,1.307
		c-1.177,0.267-4.312,1.049-4.579,0.396c-0.258-0.654-2.617-2.746-2.617-3.532s-1.439-2.876-1.569-3.658
		c-0.126-0.77,2.512-3.053,2.982-4.127c0.214,0.122,0.438,0.269,0.68,0.462c1.307,1.047,1.307,0.392,1.698,1.18
		c0.397,0.782,0.656,0.656,1.967,0.911c1.309,0.267,1.438,0.267,2.1,1.049c0.653,0.782,3.397,1.307,3.397,1.307
		S43.619,23.906,43.605,24.764z"/>
</g>
<g>
</g>
<g>
</g>
<g>
</g>
<g>
</g>
<g>
</g>
<g>
</g>
<g>
</g>
<g>
</g>
<g>
</g>
<g>
</g>
<g>
</g>
<g>
</g>
<g>
</g>
<g>
</g>
<g>
</g>
</svg>
